<svg width="17" height="25" viewBox="0 0 17 25" fill="none" xmlns="http://www.w3.org/2000/svg">
<path d="M14.5714 0H2.42857C1.78447 0 1.16676 0.263392 0.711312 0.732233C0.255866 1.20107 0 1.83696 0 2.5V23.75C0 24.0815 0.127934 24.3995 0.355656 24.6339C0.583379 24.8683 0.892237 25 1.21429 25H15.7857C16.1078 25 16.4166 24.8683 16.6443 24.6339C16.8721 24.3995 17 24.0815 17 23.75V2.5C17 1.83696 16.7441 1.20107 16.2887 0.732233C15.8332 0.263392 15.2155 0 14.5714 0ZM7.28571 17.5H3.64286V15H7.28571V17.5ZM7.28571 12.5H3.64286V10H7.28571V12.5ZM7.28571 7.5H3.64286V5H7.28571V7.5ZM13.3571 17.5H9.71429V15H13.3571V17.5ZM13.3571 12.5H9.71429V10H13.3571V12.5ZM13.3571 7.5H9.71429V5H13.3571V7.5Z" fill="white"/>
</svg>
