<svg width="22" height="22" viewBox="0 0 22 22" xmlns="http://www.w3.org/2000/svg" class="ft-icon">
<path d="M18.7 2.2H16.5V1.1C16.5 0.808262 16.3841 0.528473 16.1778 0.322182C15.9715 0.115892 15.6917 0 15.4 0C15.1083 0 14.8285 0.115892 14.6222 0.322182C14.4159 0.528473 14.3 0.808262 14.3 1.1V2.2H7.7V1.1C7.7 0.808262 7.58411 0.528473 7.37782 0.322182C7.17153 0.115892 6.89174 0 6.6 0C6.30826 0 6.02847 0.115892 5.82218 0.322182C5.61589 0.528473 5.5 0.808262 5.5 1.1V2.2H3.3C2.42479 2.2 1.58542 2.54768 0.966548 3.16655C0.347678 3.78542 0 4.62479 0 5.5V18.7C0 19.5752 0.347678 20.4146 0.966548 21.0335C1.58542 21.6523 2.42479 22 3.3 22H18.7C19.5752 22 20.4146 21.6523 21.0335 21.0335C21.6523 20.4146 22 19.5752 22 18.7V5.5C22 4.62479 21.6523 3.78542 21.0335 3.16655C20.4146 2.54768 19.5752 2.2 18.7 2.2ZM19.8 18.7C19.8 18.9917 19.6841 19.2715 19.4778 19.4778C19.2715 19.6841 18.9917 19.8 18.7 19.8H3.3C3.00826 19.8 2.72847 19.6841 2.52218 19.4778C2.31589 19.2715 2.2 18.9917 2.2 18.7V11H19.8V18.7Z" />
</svg>
