<?xml version="1.0" encoding="utf-8"?>
<!-- Generator: Adobe Illustrator 21.1.0, SVG Export Plug-In . SVG Version: 6.00 Build 0)  -->
<svg version="1.1" id="レイヤー_1" xmlns="http://www.w3.org/2000/svg" xmlns:xlink="http://www.w3.org/1999/xlink" x="0px"
	 y="0px" width="148px" height="46px" viewBox="0 0 148 46" style="enable-background:new 0 0 148 46;" xml:space="preserve">
<style type="text/css">
	.st0{fill:#FFF000;}
	.st1{fill:#231815;}
	.st2{fill:#FFFFFF;}
</style>
<g>
	<g>
		<path class="st0" d="M146.6,27l-7-5.4l-9.4-1.7l-6-10.2l-10.6-8.2c-0.8-0.6-1.6-0.3-1.7,0.7L109.3,21c-0.1,1-0.4,2.7-0.5,3.7
			l-2.5,18.8c-0.1,1,0.5,1.5,1.5,1.1l17.6-7.2c1-0.4,2.5-1,3.5-1.4l17.6-7.2C147.3,28.5,147.4,27.6,146.6,27z"/>
		<path class="st1" d="M147.1,26.3l-7.2-5.5l-9.2-1.7l-5.9-10l-10.7-8.3c-0.4-0.3-0.9-0.5-1.3-0.5c-0.9,0-1.6,0.7-1.8,1.8l-2.7,20.1
			c-0.1,0.9-0.2,1.8-0.3,2.4l-2.5,18.8c-0.1,0.7,0.1,1.3,0.4,1.7c0.3,0.4,0.8,0.6,1.3,0.6c0.3,0,0.6-0.1,0.9-0.2l18.1-7.4
			c0.9-0.4,2.2-0.9,3-1.2l17.6-7.2c0.7-0.3,1.2-0.9,1.3-1.5C148.1,27.5,147.8,26.8,147.1,26.3z M129.7,20.7l9.5,1.7l5.7,4.4
			l-18.6-3.4l-12-20.3l9.1,7.1L129.7,20.7z M109.7,24.8c0.1-0.7,0.2-1.6,0.3-2.4l2.6-18.9l12.2,20.7l-17.5,18.3L109.7,24.8z
			 M128.5,35.3c-0.8,0.3-2,0.8-3,1.2l-16.6,6.8l17.3-18.1l18.6,3.4L128.5,35.3z"/>
	</g>
	<path class="st2" d="M99.8,26.4c-0.1,0-0.4,0-1.6,1.4c-0.9,1.1-1.8,2-2.6,2.5c-1.3,0.9-2.5,1.3-3.8,1.3c-1,0-2.3-0.7-3.4-1.9
		c1.3-1.4,2.3-2.5,3-3.3c0.8-0.8,1.3-1.3,1.5-1.6c1.6-2.3,2.4-4.4,2.4-6.3v-0.2l0-0.1c-0.6-1.3-1.3-1.9-2.3-1.9
		c-1.1,0-2.3,0.8-3.7,2.5c-0.5,0.7-1.1,1.5-1.7,2.2c-0.3,0.4-0.7,0.8-1,1.2c0-0.1,0-0.2,0-0.2c0.4-2.4,0.5-2.9,1-4.6l0.2-0.8
		c0.4-1.4,0.5-1.9,0.6-2.3c0.1-0.3,0.1-0.7,0.3-1.4c0.3-1.2,0.6-3.3,0.2-4.2l-0.1-0.3C88.6,7.5,88.4,7,87.5,7l-0.2,0L87.3,7
		c-0.8,0.8-1.3,1.4-1.6,2.1c-0.7,1.7-1.2,3.4-1.6,6.6c-0.4,3.8-0.8,6.6-1,7.4c-0.2,1.1-0.4,2.1-0.6,2.9c-0.2,0.3-0.4,0.6-0.7,1
		c-1.1,1.8-1.7,2.1-1.9,2.1l-0.1,0c-0.2-0.2-0.3-0.4-0.3-0.7c0-0.3,0.1-0.8,0.3-1.2c0.2-0.5,0.3-1,0.3-1.4c0-0.7-0.4-1.8-1.2-3.2
		c-0.8-1.5-1.6-2.2-2.2-2.3l-0.1,0l-0.1,0.1c-0.2,0.2-0.3,0.5-0.6,1c-0.4,0.9-1,2-2.1,3.1c-0.4,0.4-1.1,0-1.7-0.7
		c-0.2-1.4-0.3-1.6-0.4-1.7c-0.5-0.7-1-1-1.7-0.8L69,21.9c-0.2-0.2-0.5-0.4-0.6-0.5l-0.1-0.1l-0.1,0c-0.6,0.2-1,0.4-1.4,0.6
		l-0.1,0.1l0,0.1c-0.9,1.8-1.4,3.6-1.7,5.1c-0.2,0-0.4,0-0.6,0c-0.7-0.1-1.2-1.1-1.4-3c-0.1-1.2-0.2-2.4-0.3-3.6l0-0.7L62.5,20
		c-0.1-0.1-0.3-0.1-0.4-0.1c-0.6-0.1-1.1,0.1-1.6,0.4l-0.1,0.1l0,0.1c0.1,0.8,0.2,1.6,0.1,2.5c-0.3,3-1.5,5.3-3.8,7.1l-0.1-0.1
		c-0.2-0.2-0.3-0.3-0.4-0.4c-0.1-1.3,0-3,0.2-5.2c0.2-2.5,0.3-4.3,0.3-5.3l0-0.1l-0.1-0.1c-0.5-0.6-1.1-0.9-1.6-1l-0.1,0l-0.7,0.6
		l0,0.1c-0.1,0.7-0.2,1.8-0.4,3.3L53.6,23c-0.1,0.9-0.2,1.6-0.2,2.2c0,0.3,0,0.7,0.2,1.2c-0.8,0.2-1.5,0.9-2,2c-0.4,1-1,1.7-1.6,1.9
		c-0.2-0.8-0.2-1.8-0.1-2.9c0-0.5,0.2-1.3,0.3-2.4c0.2-1.2,0.3-1.9,0.4-2.4c0.1-1.2,0-2.1-0.2-2.8l0.1-0.1l0-0.1
		c-0.2-0.4-0.5-0.6-1.1-0.7c-0.9-0.1-1.4,0.5-1.5,1.6c0,0.3,0,0.8,0,1.5c0.1,0.8,0,1.3,0,1.5c0,0.4-0.1,1-0.2,1.8
		c0,0.3-0.1,0.5-0.1,0.8c-0.2,0.2-0.4,0.6-0.7,1.2c-0.6,1.1-1.1,2-1.5,2.6c-0.7,1-1.6,1.6-2.6,1.9c-0.1-0.1-0.2-0.1-0.3-0.1
		c-0.5-1-0.8-2.2-0.9-3.4c-0.2-2.9-0.2-4.8,0.1-5.8c0.5,0.1,1.1,0.1,1.7,0.1c1.8-0.1,2.9-0.7,3.2-1.7l0-0.1l-0.7-0.7l-0.5,0
		c-0.2,0-0.6,0.1-0.9,0.1c-0.3,0-0.7,0.1-0.9,0.1c-0.5,0-1,0-1.3-0.2c0-0.4,0.1-1.3,0.3-2.8c0.2-1.1,0.2-2.1,0.1-3
		c-0.1-1.1-0.4-2.1-1-3l0-0.1l-0.7-0.3l-0.1,0c-0.9,0.2-1.6,1.2-2,3c-0.4,1.5-0.6,2.7-0.5,3.8c0.1,0.8,0.1,1.3,0.1,1.6
		c-1.8-0.1-2.9-0.2-3.5-0.1l-0.5,0l0.4,1.1l0.1,0c1.7,0.9,2.9,1.4,3.6,1.7c0,0.2,0,1-0.1,2.3c0,0.8,0,1.5,0,2.2
		c-0.2,0.2-0.5,0.5-0.8,0.9c-0.9,1.2-1.5,2-1.8,2.3c-0.8,0.8-1.6,1.2-2.4,1.2c-0.5,0-1.2-0.3-1.8-0.6l-0.3-0.1
		c-0.5-0.7-0.8-1.4-0.8-2.3c0-0.5,0.1-1.1,0.3-1.9c0.2-0.8,0.4-1.3,0.4-1.6c0-0.1,0.1-0.2,0.1-0.3c0,0,0-0.1,0-0.2
		c0-0.2,0.1-0.6,0.2-1.2c0.1-0.7,0.2-1.1,0.4-1.4c0.7-1.5,1.4-3,2-4.6c0.7-1.8,1.1-3.4,1.1-4.9c0-1.7-0.3-2.9-1-3.6L34,8.7h-1
		L33,8.7c-1.4,1.4-2.6,4-3,6c0,0.3-0.1,1.5-0.2,3.6c-0.1,1.6-0.3,2.7-0.5,3.2l-0.1,0.2c-0.6,1.1-1.4,2.8-3.2,4.4
		c-0.3,0.2-0.5,0.4-0.8,0.4c-0.2,0-0.4-0.1-0.6-0.2c0.7-2.3,1-3.7,1-4.2c0-1.1-0.3-1.7-0.9-1.9l-1-0.2c-0.1-0.4-0.2-0.8-0.3-1l0-0.1
		l-0.1,0c-0.4-0.2-0.8-0.3-1.1-0.3l-0.3,0.1l-0.1,0.1c-2.5,2.7-4,5.6-4.6,8.7c-0.2,0.2-0.3,0.4-0.5,0.7c-1,1.4-1.7,2.3-2.2,2.8
		c-1,1-2,1.5-3.1,1.5c-1.7,0-2.6-1.4-2.6-4.2c0-0.6,0.2-1.4,0.7-2.3c0.2-0.3,0.3-0.7,0.5-1c0.2-0.5,0.5-1,0.7-1.4
		c2.7-5.7,4-10.1,4-13.4c0-0.7,0-1.3-0.2-1.9l0-0.1c-0.5-0.7-1-1-1.5-1c-0.2,0-0.5,0.1-1.4,0.7c-1.5,1-2.7,3.2-3.5,6.5
		c-0.2,1.1-0.4,2.3-0.6,3.4c-0.3,1.4-0.5,2.8-0.7,4.1l-0.1,0.5c0,0.2,0,0.2-0.1,0.5l-0.1,0.5c0,0.3-0.2,1.3-0.3,1.5
		c-0.3,0.7-1.5,2.2-5.2,5.9l-0.1,0.1c-0.8,0.8-0.8,1.5-0.2,2.7l0,0.1l0.1,0c0,0,0.6,0.1,1.1,0.1c0.4,0,0.7-0.1,0.9-0.2
		c0.7-0.4,2.3-1.9,3.4-3.4c0.2,0.6,0.5,1.7,0.9,2.3c1,1.4,2.8,2.2,5,2.2c1.7,0,3.3-0.7,5-2.2c0.1-0.1,0.1-0.1,0.2-0.2
		c0.2,1.2,0.6,2.1,1.3,2.7l0.1,0.1l0.4-0.1c0.4-0.1,1-0.3,1.8-0.5l0.1,0l0-0.1c0.6-0.7,1.1-1.3,1.4-1.9c0.4-0.9,0.8-1.4,1.1-1.8
		c0.1-0.2,0.2-0.5,0.4-0.9c0.1,0,0.2,0,0.2,0l0.2,0c0.3,0,0.5,0,1.4-0.2l2.3-1.2c0.2,0.5,0.2,1,0.2,1.6c0,1.2-0.3,1.9-0.7,3
		c-0.4,1-0.9,2.3-1.5,4.5c-0.4,1.7-0.1,2.3,0.2,3.1c0.3,0.7,0.6,1.5,0.6,3.3v0.4l0.8,0.9h1l0.3-0.3c0.6-0.7,0.9-1.1,1.5-2.3
		c0.3-0.7,0.5-0.9,0.5-1.1c0.1-0.1,0.1-0.2,0.2-0.4c0.2-1.1,0.1-2.1,0.1-2.8c0-0.2,0-0.3,0-0.5c0-1.6,0-2.5,0-3c0-0.6,0-0.8,0.1-1.3
		c1,0.7,1.9,1,2.8,1c0.8,0,1.8-0.4,3.1-1.3c0.7-0.6,1.4-1.2,1.8-1.8c0.4,2.4,1,3.6,2,3.9c0.2,0.1,0.4,0.1,0.7,0.1c0.1,0,0.3,0,0.4,0
		c1.4-0.1,3-1,4.8-2.7c0.3-0.3,0.6-0.6,0.9-0.9c0.2,1,0.5,1.8,0.9,2.3l0,0l0.1,0c0.2,0.1,0.4,0.1,0.6,0.1c0.2,0,0.3,0,0.5,0
		c0.1,0,0.1,0,0.2,0l0.1,0l0.1,0c1.4-1.1,2.5-2.3,3.6-3.6c0.6,1.1,1.1,1.9,1.4,2.5l0.1,0.1c0.4,0.3,0.8,0.4,1.3,0.5
		c0.8,0.1,1.5-0.3,2.2-1c0.4-0.4,0.9-1.1,1.6-2.3c0.5-0.9,0.9-1.4,1.2-1.7c0.6,1,1.7,1.6,3.2,1.8c0.1,0,0.2,0,0.3,0
		c0.1,1.5,0.5,2.9,1.4,4.2c0.7,1,1.6,1.5,2.7,1.5c0.1,0,0.2,0,0.3,0l0.1,0l0.2-0.2c0.7-0.6,1.3-1.2,1.8-1.6l0.1-0.1
		c0.4-0.9,0.6-1.6,0.8-2.2c0.1-0.9,0.3-1.5,0.5-1.9c0.1-0.4,0.1-1.1,0-2.3c0.1,0,0.2,0.1,0.3,0.1c0.8,0.2,2.2-0.7,2.8-1.3
		c0.5-0.7,1.1-1.2,1.5-1.3c0.1,0.4,0.2,0.8,0.2,1.2c0,0.6-0.2,1.4-0.5,2.4c-0.3,1-0.5,1.9-0.5,2.5c0,1.2,0.7,2,2,2.3l0.1,0l0.1,0
		c0.8-0.2,1.8-0.8,3.1-1.7c0,0,0,0,0.1-0.1c-0.1,1.3-0.2,2.4-0.2,3.4v1.5l1,0.3l0.1,0c0.6-0.3,1.5-1.5,1.7-2.8
		c0.1-0.4,0.2-0.8,0.2-1.1c0.2-0.9,0.3-1.6,0.4-1.9c0.4,0,1.1,0.7,1.7,1.2c0.2,0.2,0.4,0.3,0.5,0.4c1.1,0.8,1.7,1.3,1.8,1.4
		c0.9,0.5,1.9,0.8,3.1,0.8c2.5,0,5-1.3,7.4-3.7c0.7-0.7,1-1.7,1-3.2C100.5,26.8,100.2,26.4,99.8,26.4z M92.5,19.1
		c0.1,0.2,0.2,0.5,0.2,0.8c0,1-0.8,2.5-2.4,4.5c-1.3,1.7-2.8,2.8-3.8,3.5c0.4-1.3,1.3-2.7,2.3-4.3l0.1-0.2
		C90.2,21.3,91.6,19.9,92.5,19.1z M69,32.2c-0.1-0.1-0.2-0.2-0.4-0.4c-0.1-0.1-0.2-0.3-0.3-1c-0.1-0.3-0.2-0.5-0.3-0.7
		c-0.1-0.1-0.1-0.2-0.2-0.3c0.2-1.2,0.4-2.2,0.5-3.1c0.1-0.5,0.1-1,0.1-1.4c0.1-0.4,0.4-0.9,0.8-1.4C70.6,26.2,70.5,29,69,32.2z
		 M32.5,15.2c0.1-0.8,0.3-1.5,0.6-2C33,13.7,32.8,14.4,32.5,15.2z M28.8,39c-0.1,0.5-0.2,0.9-0.4,1.4c0,0.1-0.1,0.2-0.1,0.3
		c-0.1-0.3-0.2-0.5-0.2-0.7c-0.2-0.8-0.4-1.5-0.2-2.5c0.2-0.9,0.7-1.5,1-1.9c0,0,0,0,0-0.1c0,0.4,0,0.8,0,1.1l0,0.2
		C29,37.1,29,37.9,28.8,39z M23,22.2c0,3.4-1.2,6.4-3.4,9c0-0.2-0.1-0.4-0.1-0.7c0-0.2,0-0.6,0.2-1.3c0-0.4,0-0.7,0.1-1
		c0-0.2,0-0.4,0-0.5c0.6-1.1,1.2-2.2,1.6-3.1c0.3-0.7,0.5-1.2,0.6-1.5C22.2,22.8,22.6,22.5,23,22.2z M9.7,19.5
		c0-1.1,0.2-2.3,0.5-3.8c0.1-0.6,0.3-1.1,0.4-1.7c0.1-0.6,0.3-1.1,0.4-1.7c0.4-1.1,0.9-1.9,1.6-2.4c0.1,0.4,0.2,0.9,0.2,1.5
		c0,1.4-1.1,4.3-3.1,8.6C9.7,19.9,9.7,19.7,9.7,19.5z"/>
</g>
</svg>
