<svg width="19" height="22" viewBox="0 0 19 22" xmlns="http://www.w3.org/2000/svg">
<path d="M19 15.2816V1.01877C19 0.454203 18.5462 0 17.9821 0H4.07143C1.82366 0 0 1.8253 0 4.07509V17.6587C0 19.9085 1.82366 21.7338 4.07143 21.7338H17.9821C18.5462 21.7338 19 21.2796 19 20.715V20.0359C19 19.7175 18.8516 19.4288 18.6225 19.2421C18.4444 18.5884 18.4444 16.7248 18.6225 16.0711C18.8516 15.8886 19 15.6 19 15.2816ZM5.42857 5.68815C5.42857 5.54806 5.54308 5.43345 5.68304 5.43345H14.6741C14.8141 5.43345 14.9286 5.54806 14.9286 5.68815V6.53712C14.9286 6.6772 14.8141 6.79182 14.6741 6.79182H5.68304C5.54308 6.79182 5.42857 6.6772 5.42857 6.53712V5.68815ZM5.42857 8.40487C5.42857 8.26479 5.54308 8.15018 5.68304 8.15018H14.6741C14.8141 8.15018 14.9286 8.26479 14.9286 8.40487V9.25385C14.9286 9.39393 14.8141 9.50854 14.6741 9.50854H5.68304C5.54308 9.50854 5.42857 9.39393 5.42857 9.25385V8.40487ZM16.1754 19.0171H4.07143C3.32076 19.0171 2.71429 18.4101 2.71429 17.6587C2.71429 16.9116 3.325 16.3004 4.07143 16.3004H16.1754C16.0949 17.0262 16.0949 18.2912 16.1754 19.0171Z" />
</svg>